<svg width="256" height="256" viewBox="0 0 256 256" fill="none" xmlns="http://www.w3.org/2000/svg">
<rect width="256" height="256" fill="black"/>
<mask id="mask0_37_135" style="mask-type:luminance" maskUnits="userSpaceOnUse" x="28" y="45" width="200" height="167">
<path d="M28 45H228V211.554H28V45Z" fill="white"/>
</mask>
<g mask="url(#mask0_37_135)">
<path fill-rule="evenodd" clip-rule="evenodd" d="M148.501 69.954C172.699 78.9496 189.933 102.252 189.933 129.584C189.933 205.691 81.7144 221.524 28 203.825C28 203.825 77.0407 207.749 103.41 188.928C79.6099 179.726 62.7275 156.63 62.7275 129.584C62.7275 52.3612 173.655 34.2174 227.715 52.0293C227.715 52.0293 173.602 47.7008 148.501 69.954ZM125.65 81.6582C151.276 81.6582 172.055 102.438 172.055 128.063C172.055 153.696 151.276 174.475 125.65 174.475C100.018 174.475 79.2381 153.696 79.2381 128.063C79.2381 102.438 100.018 81.6582 125.65 81.6582Z" fill="white"/>
</g>
</svg>
